<svg xmlns="http://www.w3.org/2000/svg" xmlns:xlink="http://www.w3.org/1999/xlink" width="100" height="100" viewBox="0 0 100 100"><g><g transform="translate(50 50) scale(0.69 0.69) rotate(0) translate(-50 -50)" style="fill:#000000"><svg fill="#000000" xmlns="http://www.w3.org/2000/svg" data-name="Layer 1" viewBox="0 0 96 90.95" x="0px" y="0px"><title>04</title><path d="M94.69,22.84c-6.63-1.87-21.64,5.68-25.91,17-3.54,9.39-2.65,15.7-2.32,17.32A81.18,81.18,0,0,0,56.93,72c.4-9.61,1.51-21.85,1.7-23.91,10.83-9.24,10.77-21.31,9.76-27.71-1.26-7.93-5-14.61-7.55-15.64a3.66,3.66,0,0,0-3.35.45c-4.24,2.54-8.79,12.36-9.74,21-1.1,10.05,5.68,20.17,6.89,21.9-.12,1.16-.57,4.86-1,8.4a58.7,58.7,0,0,0-1.57-6.13C48.49,38.39,35.75,35.1,35.21,35a.78.78,0,0,0-.92.49c-.08.22-1.91,5.43,3.09,13.68,7.35,12.14,13.86,17.94,15.14,19l-.31,5.95a18.4,18.4,0,0,0-2.94-2.83L48.16,69.8c-.6-1.37-7.54-16.15-24.25-16.55C13.19,53,6.83,55.45,3.38,57.56A2.88,2.88,0,0,0,2,60.08a2.92,2.92,0,0,0,1.47,2.51c6.36,3.68,22.36,12.22,33.37,12.22h0c.1,0,1,0,2.32,0a59.9,59.9,0,0,0,8-.44c7.94,6.65,7.7,19.16,7.69,19.29a.78.78,0,0,0,.21.56,3.26,3.26,0,0,0,2.31,1.23l.35,0a2.92,2.92,0,0,0,2-1.63.78.78,0,0,0,.07-.4,40.77,40.77,0,0,0-2-9.31c.77-2.19,6.32-17.52,12.05-24.07,19.28-.27,26.62-16.24,27.92-25.7C98.58,28.21,97.35,23.6,94.69,22.84ZM49.3,26.37c1-8.84,5.54-17.76,9-19.83a2.2,2.2,0,0,1,2-.34c1.56.63,5.3,6.29,6.59,14.43.92,5.84,1,16.64-8.06,25.23.36-5.57,1.36-22,1.25-31.76a.77.77,0,0,0-.79-.77.78.78,0,0,0-.77.79c.12,10.57-1.08,29.11-1.33,32.86l-1.31.09C54.52,45.16,48.3,35.54,49.3,26.37Zm-10.59,22c-3.54-5.85-3.38-10-3.12-11.61,2.75.89,12.14,4.59,15,14.12a53.44,53.44,0,0,1,2.29,11.88l-.09.72a37.45,37.45,0,0,0-8.3-12.21.78.78,0,1,0-1.12,1.1,34.69,34.69,0,0,1,8.45,13.07A87.06,87.06,0,0,1,38.71,48.32Zm15.41,19a18.43,18.43,0,0,0,.32-4.57c.41-3.29,1.43-11.59,1.72-14.17l.85-.06c-.34,3.79-1.62,18.43-1.78,27.66q-.24.74-.43,1.46c-.37-.61-.75-1.18-1.12-1.7Zm-17.26,5.9h0c-10.65,0-26.35-8.4-32.6-12a1.37,1.37,0,0,1-.69-1.18,1.31,1.31,0,0,1,.64-1.16c3.27-2,9.33-4.33,19.67-4.08,13.88.33,20.62,11.24,22.4,14.67C33.9,62.66,18.12,60,17.95,60a.78.78,0,0,0-.26,1.54c.18,0,17.59,3,29.93,10.57l-.49.74A72.49,72.49,0,0,1,36.86,73.25ZM57.43,93.9a1.43,1.43,0,0,1-1.05-.51c0-2.13-.37-13.22-7.85-19.85L48.9,73c2,1.7,8,7.83,9.25,20.33A1.24,1.24,0,0,1,57.43,93.9ZM55.94,79.75c1.45-8.41,10-19.4,11.67-21.51.93.21,1.12.5,1.14.54a.16.16,0,0,1,0,.07c-5.19,5.82-10.06,18.16-11.86,23Q56.45,80.74,55.94,79.75ZM96.19,34.12C95,42.84,88.4,57.4,71.26,58.42,74.59,54.67,83.88,43.9,88.93,35a.78.78,0,0,0-1.36-.77c-5.11,9-14.66,20-17.72,23.44A3.57,3.57,0,0,0,68,56.71c-.3-1.65-1-7.6,2.28-16.3C74.18,30,88.3,22.67,94.26,24.35,95.81,24.79,97,28.56,96.19,34.12Z" transform="translate(-2 -4.53)"></path></svg></g></g></svg>